M48
;Layer_Color=6321
;FILE_FORMAT=2:3
INCH,TZ
;TYPE=PLATED
T1F00S00C0.035
T2F00S00C0.087
%
T01
X1450Y1100
X1550Y1100
X1295Y1405
X1295Y1505
X1750Y1510
X1750Y1410
X1950Y1410
X1950Y1310
X1950Y1210
X1850Y1100
X1750Y1100
X1650Y1100
X1650Y1210
X1950Y1510
X2450Y1510
X2450Y1410
X2450Y1310
X2650Y1410
X2650Y1510
X3060Y1560
X3060Y1460
X3060Y1360
X3060Y1260
X3060Y1160
X3060Y1660
X3050Y1920
X3050Y2020
X3050Y2120
X3050Y2220
X3050Y2320
X3050Y2420
X3050Y2530
X3050Y2890
X2650Y2910
X2650Y2810
X2650Y2710
X2650Y2610
X2650Y2510
X2650Y2410
X2650Y2310
X2650Y2210
X2650Y2110
X2650Y2010
X2650Y1910
X2650Y1810
X2650Y1710
X2650Y1610
X2450Y1610
X2450Y1710
X2450Y1810
X2450Y1910
X2450Y2010
X1950Y2010
X1950Y1910
X1950Y1810
X1950Y1710
X1950Y1610
X1750Y1610
X1750Y1710
X1750Y1810
X1750Y1910
X1750Y2010
X1750Y2110
X1750Y2210
X1750Y2310
X1750Y2410
X1750Y2510
X1750Y2610
X1750Y2710
X1750Y2810
X1750Y2910
X1750Y3010
X1750Y3110
X1580Y2400
X1580Y2300
X1580Y2200
X2650Y3010
X2650Y3110
X1320Y3101
X1320Y2982
X1170Y2670
X1170Y2591
X1480Y2400
X1480Y2300
X1480Y2200
X1295Y2205
X1295Y2105
X1295Y2005
X1295Y1905
X1295Y1805
X1295Y1705
X1295Y1605
X1750Y3210
X1750Y3310
X2650Y3310
X2650Y3210
T02
X1098Y1099
X3264Y1098
X1098Y3265
X3264Y3264
M30
