G04 Layer_Physical_Order=2*
G04 Layer_Color=11436288*
%FSLAX23Y23*%
%MOIN*%
G70*
G01*
G75*
%ADD10C,0.031*%
%ADD11O,0.120X0.060*%
%ADD12C,0.079*%
%ADD13R,0.079X0.079*%
%ADD14R,0.079X0.079*%
%ADD15C,0.035*%
%ADD16C,0.060*%
%ADD17R,0.031X0.035*%
%ADD18R,0.049X0.061*%
%ADD19R,0.090X0.160*%
%ADD20R,0.046X0.040*%
G36*
X3140Y2578D02*
X3140Y1612D01*
X3121Y1593D01*
X3101Y1596D01*
X3099Y1599D01*
X3094Y1601D01*
X3094Y1621D01*
X3098Y1622D01*
X3111Y1655D01*
X3009Y1655D01*
X3022Y1622D01*
X3026Y1621D01*
X3026Y1601D01*
X3021Y1599D01*
X3005Y1560D01*
X3021Y1521D01*
X3023Y1520D01*
X3023Y1500D01*
X3021Y1499D01*
X3005Y1460D01*
X3021Y1421D01*
X3023Y1420D01*
X3023Y1400D01*
X3021Y1399D01*
X3005Y1360D01*
X3021Y1321D01*
X3018Y1302D01*
X3008Y1290D01*
X3000Y1290D01*
X2979Y1281D01*
X2970Y1272D01*
X2950Y1280D01*
X2950Y1838D01*
X2980Y1867D01*
X2999Y1869D01*
X2999Y1869D01*
X2999Y1869D01*
X3101Y1869D01*
X3101Y1971D01*
X3101Y1971D01*
X3101Y1971D01*
X3093Y1991D01*
X3105Y2020D01*
X3089Y2059D01*
X3084Y2061D01*
X3084Y2081D01*
X3088Y2082D01*
X3101Y2115D01*
X2999Y2115D01*
X3012Y2082D01*
X3016Y2081D01*
X3016Y2061D01*
X3011Y2059D01*
X3007Y2050D01*
X2990Y2050D01*
X2969Y2041D01*
X2839Y1911D01*
X2830Y1890D01*
X2830Y1312D01*
X2788Y1270D01*
X2508Y1270D01*
X2495Y1290D01*
X2501Y1305D01*
X2399Y1305D01*
X2405Y1290D01*
X2392Y1270D01*
X2345Y1270D01*
X2330Y1285D01*
X2330Y1610D01*
X2321Y1631D01*
X2121Y1831D01*
X2100Y1840D01*
X1993Y1840D01*
X1989Y1849D01*
X1992Y1868D01*
X2002Y1880D01*
X2178Y1880D01*
X2369Y1689D01*
X2390Y1680D01*
X2407Y1680D01*
X2411Y1671D01*
X2413Y1670D01*
X2413Y1650D01*
X2411Y1649D01*
X2395Y1610D01*
X2411Y1571D01*
X2413Y1570D01*
X2413Y1550D01*
X2411Y1549D01*
X2395Y1510D01*
X2411Y1471D01*
X2413Y1470D01*
X2413Y1450D01*
X2411Y1449D01*
X2395Y1410D01*
X2411Y1371D01*
X2416Y1369D01*
X2416Y1349D01*
X2412Y1348D01*
X2399Y1315D01*
X2501Y1315D01*
X2488Y1348D01*
X2484Y1349D01*
X2484Y1369D01*
X2489Y1371D01*
X2493Y1380D01*
X2607Y1380D01*
X2611Y1371D01*
X2650Y1355D01*
X2689Y1371D01*
X2705Y1410D01*
X2689Y1449D01*
X2687Y1450D01*
X2687Y1470D01*
X2689Y1471D01*
X2705Y1510D01*
X2689Y1549D01*
X2687Y1550D01*
X2687Y1570D01*
X2689Y1571D01*
X2705Y1610D01*
X2689Y1649D01*
X2687Y1650D01*
X2687Y1670D01*
X2689Y1671D01*
X2705Y1710D01*
X2689Y1749D01*
X2687Y1750D01*
X2687Y1770D01*
X2689Y1771D01*
X2705Y1810D01*
X2689Y1849D01*
X2687Y1850D01*
X2687Y1870D01*
X2689Y1871D01*
X2705Y1910D01*
X2689Y1949D01*
X2697Y1967D01*
X2704Y1975D01*
X2765Y1975D01*
X2786Y1984D01*
X2989Y2187D01*
X3009Y2184D01*
X3011Y2181D01*
X3016Y2179D01*
X3016Y2159D01*
X3012Y2158D01*
X2999Y2125D01*
X3101Y2125D01*
X3088Y2158D01*
X3084Y2159D01*
X3084Y2179D01*
X3089Y2181D01*
X3105Y2220D01*
X3089Y2259D01*
X3087Y2260D01*
X3087Y2280D01*
X3089Y2281D01*
X3105Y2320D01*
X3089Y2359D01*
X3087Y2360D01*
X3087Y2380D01*
X3089Y2381D01*
X3105Y2420D01*
X3089Y2459D01*
X3080Y2463D01*
X3080Y2489D01*
X3088Y2492D01*
X3103Y2530D01*
X3088Y2568D01*
X3081Y2570D01*
X3085Y2590D01*
X3128Y2590D01*
X3140Y2578D01*
X3140Y2578D02*
G37*
G36*
X1599Y2469D02*
X1588Y2449D01*
X1585Y2449D01*
X1585Y2400D01*
X1575Y2400D01*
X1575Y2449D01*
X1531Y2449D01*
X1531Y2449D01*
X1529Y2449D01*
X1529Y2449D01*
X1485Y2449D01*
X1485Y2400D01*
X1480Y2400D01*
X1480Y2395D01*
X1431Y2395D01*
X1431Y2351D01*
X1431Y2351D01*
X1431Y2351D01*
X1423Y2334D01*
X1420Y2330D01*
X1399Y2321D01*
X1379Y2301D01*
X1370Y2280D01*
X1370Y2146D01*
X1366Y2142D01*
X1349Y2144D01*
X1344Y2156D01*
X1344Y2156D01*
X1344Y2156D01*
X1344Y2200D01*
X1246Y2200D01*
X1246Y2156D01*
X1246Y2156D01*
X1246Y2156D01*
X1252Y2136D01*
X1250Y2130D01*
X1229Y2121D01*
X1189Y2081D01*
X1180Y2060D01*
X1180Y1360D01*
X1189Y1339D01*
X1229Y1299D01*
X1250Y1290D01*
X1718Y1290D01*
X1720Y1288D01*
X1720Y1221D01*
X1700Y1217D01*
X1688Y1248D01*
X1655Y1261D01*
X1655Y1210D01*
X1650Y1210D01*
X1650Y1205D01*
X1599Y1205D01*
X1612Y1172D01*
X1628Y1166D01*
X1628Y1144D01*
X1612Y1138D01*
X1611Y1134D01*
X1591Y1134D01*
X1589Y1139D01*
X1578Y1144D01*
X1571Y1161D01*
X1521Y1211D01*
X1500Y1220D01*
X1222Y1220D01*
X1110Y1332D01*
X1110Y2338D01*
X1172Y2400D01*
X1290Y2400D01*
X1311Y2409D01*
X1372Y2470D01*
X1598Y2470D01*
X1599Y2469D01*
X1599Y2469D02*
G37*
G36*
X1820Y1494D02*
X1820Y1440D01*
X1829Y1419D01*
X1859Y1389D01*
X1880Y1380D01*
X1907Y1380D01*
X1911Y1371D01*
X1916Y1369D01*
X1916Y1349D01*
X1912Y1348D01*
X1899Y1315D01*
X2001Y1315D01*
X1988Y1348D01*
X1984Y1349D01*
X1984Y1369D01*
X1989Y1371D01*
X2005Y1410D01*
X1989Y1449D01*
X2001Y1463D01*
X2006Y1469D01*
X2009Y1468D01*
X2030Y1448D01*
X2030Y1240D01*
X2039Y1219D01*
X2178Y1080D01*
X2170Y1060D01*
X1910Y1060D01*
X1897Y1080D01*
X1905Y1100D01*
X1889Y1139D01*
X1850Y1155D01*
X1811Y1139D01*
X1792Y1142D01*
X1780Y1152D01*
X1780Y1300D01*
X1771Y1321D01*
X1756Y1336D01*
X1758Y1355D01*
X1759Y1358D01*
X1789Y1371D01*
X1805Y1410D01*
X1789Y1449D01*
X1787Y1450D01*
X1787Y1470D01*
X1789Y1471D01*
X1800Y1498D01*
X1820Y1494D01*
X1820Y1494D02*
G37*
G36*
X1115Y1173D02*
X1104Y1156D01*
X1098Y1159D01*
X1056Y1141D01*
X1038Y1099D01*
X1056Y1057D01*
X1098Y1039D01*
X1140Y1057D01*
X1158Y1099D01*
X1155Y1105D01*
X1172Y1116D01*
X1209Y1079D01*
X1230Y1070D01*
X1407Y1070D01*
X1411Y1061D01*
X1450Y1045D01*
X1489Y1061D01*
X1490Y1063D01*
X1510Y1063D01*
X1511Y1061D01*
X1550Y1045D01*
X1589Y1061D01*
X1591Y1066D01*
X1611Y1066D01*
X1612Y1062D01*
X1645Y1049D01*
X1645Y1100D01*
X1655Y1100D01*
X1655Y1049D01*
X1688Y1062D01*
X1689Y1066D01*
X1709Y1066D01*
X1711Y1061D01*
X1720Y1057D01*
X1720Y1050D01*
X1729Y1029D01*
X1744Y1014D01*
X1737Y994D01*
X1098Y992D01*
X1023Y1023D01*
X995Y1091D01*
X1000Y1098D01*
X1000Y1098D01*
X999Y1261D01*
X1019Y1269D01*
X1115Y1173D01*
X1115Y1173D02*
G37*
G36*
X2589Y3343D02*
X2587Y3340D01*
X2290Y3340D01*
X2269Y3331D01*
X2169Y3231D01*
X2160Y3210D01*
X2160Y1940D01*
X2013Y1940D01*
X2009Y1945D01*
X1999Y1961D01*
X1999Y1961D01*
X1999Y1961D01*
X1999Y2005D01*
X1901Y2005D01*
X1901Y1961D01*
X1901Y1961D01*
X1901Y1961D01*
X1907Y1941D01*
X1900Y1922D01*
X1880Y1926D01*
X1880Y3170D01*
X1871Y3191D01*
X1831Y3231D01*
X1810Y3240D01*
X1807Y3244D01*
X1799Y3261D01*
X1799Y3261D01*
X1799Y3261D01*
X1799Y3305D01*
X1701Y3305D01*
X1701Y3261D01*
X1701Y3261D01*
X1701Y3261D01*
X1691Y3245D01*
X1687Y3240D01*
X1600Y3240D01*
X1598Y3239D01*
X1572Y3239D01*
X1572Y3215D01*
X1570Y3210D01*
X1572Y3205D01*
X1572Y3180D01*
X1628Y3180D01*
X1628Y3180D01*
X1707Y3180D01*
X1711Y3171D01*
X1713Y3170D01*
X1713Y3150D01*
X1711Y3149D01*
X1695Y3110D01*
X1711Y3071D01*
X1713Y3070D01*
X1713Y3050D01*
X1711Y3049D01*
X1695Y3010D01*
X1711Y2971D01*
X1713Y2970D01*
X1713Y2950D01*
X1711Y2949D01*
X1695Y2910D01*
X1699Y2898D01*
X1685Y2882D01*
X1660Y2882D01*
X1660Y2900D01*
X1651Y2921D01*
X1608Y2964D01*
X1587Y2973D01*
X1466Y2973D01*
X1466Y2975D01*
X1396Y2975D01*
X1396Y2911D01*
X1466Y2911D01*
X1466Y2913D01*
X1572Y2913D01*
X1585Y2898D01*
X1578Y2882D01*
X1578Y2882D01*
X1578Y2698D01*
X1578Y2698D01*
X1578Y2698D01*
X1570Y2682D01*
X1558Y2670D01*
X1290Y2670D01*
X1269Y2661D01*
X1255Y2647D01*
X1239Y2659D01*
X1241Y2665D01*
X1099Y2665D01*
X1108Y2644D01*
X1108Y2623D01*
X1095Y2591D01*
X1108Y2559D01*
X1138Y2546D01*
X1140Y2540D01*
X1140Y2526D01*
X1129Y2521D01*
X1015Y2407D01*
X995Y2415D01*
X992Y3264D01*
X1023Y3339D01*
X1079Y3362D01*
X1098Y3362D01*
X1098Y3362D01*
X1682Y3362D01*
X1701Y3359D01*
X1701Y3315D01*
X1799Y3315D01*
X1799Y3359D01*
X1818Y3362D01*
X2578Y3362D01*
X2589Y3343D01*
X2589Y3343D02*
G37*
%LPC*%
G36*
X3065Y1711D02*
X3065Y1665D01*
X3111Y1665D01*
X3098Y1698D01*
X3065Y1711D01*
X3065Y1711D02*
G37*
G36*
X3055Y1711D02*
X3022Y1698D01*
X3009Y1665D01*
X3055Y1665D01*
X3055Y1711D01*
X3055Y1711D02*
G37*
G36*
X1945Y2059D02*
X1901Y2059D01*
X1901Y2015D01*
X1945Y2015D01*
X1945Y2059D01*
X1945Y2059D02*
G37*
G36*
X1426Y3170D02*
X1398Y3170D01*
X1398Y3145D01*
X1426Y3145D01*
X1426Y3170D01*
X1426Y3170D02*
G37*
G36*
X1999Y2059D02*
X1955Y2059D01*
X1955Y2015D01*
X1999Y2015D01*
X1999Y2059D01*
X1999Y2059D02*
G37*
G36*
X1945Y1205D02*
X1899Y1205D01*
X1912Y1172D01*
X1945Y1159D01*
X1945Y1205D01*
X1945Y1205D02*
G37*
G36*
X1464Y3170D02*
X1436Y3170D01*
X1436Y3145D01*
X1464Y3145D01*
X1464Y3170D01*
X1464Y3170D02*
G37*
G36*
X2001Y1205D02*
X1955Y1205D01*
X1955Y1159D01*
X1988Y1172D01*
X2001Y1205D01*
X2001Y1205D02*
G37*
G36*
X2001Y1305D02*
X1899Y1305D01*
X1912Y1272D01*
X1918Y1270D01*
X1918Y1250D01*
X1912Y1248D01*
X1899Y1215D01*
X2001Y1215D01*
X1988Y1248D01*
X1982Y1250D01*
X1982Y1270D01*
X1988Y1272D01*
X2001Y1305D01*
X2001Y1305D02*
G37*
G36*
X1645Y1261D02*
X1612Y1248D01*
X1599Y1215D01*
X1645Y1215D01*
X1645Y1261D01*
X1645Y1261D02*
G37*
G36*
X1290Y2254D02*
X1246Y2254D01*
X1246Y2210D01*
X1290Y2210D01*
X1290Y2254D01*
X1290Y2254D02*
G37*
G36*
X1243Y3074D02*
X1173Y3074D01*
X1173Y3010D01*
X1243Y3010D01*
X1243Y3074D01*
X1243Y3074D02*
G37*
G36*
X1320Y3014D02*
X1297Y3005D01*
X1288Y2982D01*
X1297Y2959D01*
X1320Y2950D01*
X1343Y2959D01*
X1352Y2982D01*
X1343Y3005D01*
X1320Y3014D01*
X1320Y3014D02*
G37*
G36*
X1320Y3133D02*
X1297Y3124D01*
X1288Y3101D01*
X1297Y3078D01*
X1320Y3069D01*
X1343Y3078D01*
X1352Y3101D01*
X1343Y3124D01*
X1320Y3133D01*
X1320Y3133D02*
G37*
G36*
X1426Y3135D02*
X1398Y3135D01*
X1398Y3110D01*
X1426Y3110D01*
X1426Y3135D01*
X1426Y3135D02*
G37*
G36*
X1098Y3325D02*
X1056Y3307D01*
X1038Y3265D01*
X1056Y3223D01*
X1089Y3209D01*
X1092Y3203D01*
X1097Y3187D01*
X1090Y3170D01*
X1090Y2890D01*
X1099Y2869D01*
X1199Y2769D01*
X1220Y2760D01*
X1288Y2760D01*
X1288Y2698D01*
X1402Y2698D01*
X1402Y2882D01*
X1288Y2882D01*
X1288Y2820D01*
X1232Y2820D01*
X1150Y2902D01*
X1150Y3142D01*
X1154Y3144D01*
X1173Y3133D01*
X1173Y3109D01*
X1243Y3109D01*
X1243Y3172D01*
X1192Y3172D01*
X1184Y3192D01*
X1242Y3250D01*
X1448Y3250D01*
X1490Y3208D01*
X1490Y3160D01*
X1499Y3139D01*
X1528Y3110D01*
X1535Y3107D01*
X1535Y3102D01*
X1535Y3101D01*
X1533Y3082D01*
X1513Y3082D01*
X1513Y3070D01*
X1466Y3070D01*
X1466Y3074D01*
X1396Y3074D01*
X1396Y3010D01*
X1466Y3010D01*
X1466Y3010D01*
X1513Y3010D01*
X1513Y2998D01*
X1574Y2998D01*
X1586Y2998D01*
X1590Y2998D01*
X1594Y2998D01*
X1606Y2998D01*
X1667Y2998D01*
X1667Y3063D01*
X1670Y3070D01*
X1667Y3077D01*
X1667Y3131D01*
X1665Y3136D01*
X1665Y3160D01*
X1638Y3160D01*
X1637Y3160D01*
X1637Y3160D01*
X1610Y3160D01*
X1610Y3158D01*
X1590Y3150D01*
X1590Y3150D01*
X1590Y3160D01*
X1563Y3160D01*
X1563Y3160D01*
X1562Y3160D01*
X1550Y3172D01*
X1550Y3220D01*
X1541Y3241D01*
X1481Y3301D01*
X1460Y3310D01*
X1230Y3310D01*
X1209Y3301D01*
X1176Y3268D01*
X1154Y3274D01*
X1140Y3307D01*
X1098Y3325D01*
X1098Y3325D02*
G37*
G36*
X1243Y2975D02*
X1173Y2975D01*
X1173Y2911D01*
X1243Y2911D01*
X1243Y2975D01*
X1243Y2975D02*
G37*
G36*
X1464Y3135D02*
X1436Y3135D01*
X1436Y3110D01*
X1464Y3110D01*
X1464Y3135D01*
X1464Y3135D02*
G37*
G36*
X1344Y2254D02*
X1300Y2254D01*
X1300Y2210D01*
X1344Y2210D01*
X1344Y2254D01*
X1344Y2254D02*
G37*
G36*
X1475Y2449D02*
X1431Y2449D01*
X1431Y2405D01*
X1475Y2405D01*
X1475Y2449D01*
X1475Y2449D02*
G37*
G36*
X1200Y2713D02*
X1175Y2713D01*
X1175Y2675D01*
X1241Y2675D01*
X1231Y2701D01*
X1200Y2713D01*
X1200Y2713D02*
G37*
G36*
X1165Y2713D02*
X1140Y2713D01*
X1109Y2701D01*
X1099Y2675D01*
X1165Y2675D01*
X1165Y2713D01*
X1165Y2713D02*
G37*
%LPD*%
D10*
X2450Y1410D02*
X2650Y1410D01*
X2450Y1506D02*
X2647Y1506D01*
X2450Y1606D02*
X2647Y1606D01*
X2575Y1705D02*
X2648Y1705D01*
X2474Y1806D02*
X2575Y1705D01*
X2450Y1806D02*
X2474Y1806D01*
X2595Y1805D02*
X2648Y1805D01*
X2494Y1906D02*
X2595Y1805D01*
X2450Y1906D02*
X2494Y1906D01*
X2615Y1905D02*
X2648Y1905D01*
X2514Y2006D02*
X2615Y1905D01*
X2450Y2006D02*
X2514Y2006D01*
X1880Y1410D02*
X1950Y1410D01*
X1850Y1440D02*
X1880Y1410D01*
X1850Y1440D02*
X1850Y3170D01*
X1295Y1403D02*
X1750Y1403D01*
X1295Y1505D02*
X1748Y1505D01*
X1295Y1603D02*
X1746Y1603D01*
X1295Y1705D02*
X1750Y1705D01*
X1295Y1803D02*
X1746Y1803D01*
X1295Y1905D02*
X1748Y1905D01*
X1950Y1510D02*
X2010Y1510D01*
X1330Y2003D02*
X1746Y2003D01*
X1748Y2005D01*
X2010Y1510D02*
X2060Y1460D01*
X2920Y1850D02*
X2990Y1920D01*
X3050Y1920D01*
X2648Y2005D02*
X2765Y2005D01*
X2980Y2220D01*
X3050Y2220D01*
X2648Y2105D02*
X2755Y2105D01*
X2970Y2320D01*
X3050Y2320D01*
X2648Y2205D02*
X2745Y2205D01*
X2990Y2020D02*
X3050Y2020D01*
X1600Y3210D02*
X1750Y3210D01*
X1810Y3210D02*
X1850Y3170D01*
X1750Y3210D02*
X1810Y3210D01*
X1950Y1910D02*
X2190Y1910D01*
X2390Y1710D01*
X2450Y1710D01*
X2190Y1910D02*
X2190Y3210D01*
X2290Y3310D01*
X2650Y3310D01*
X3060Y1460D02*
X3120Y1460D01*
X2648Y2305D02*
X2765Y2305D01*
X1950Y1610D02*
X2060Y1610D01*
X2130Y1540D01*
X1950Y1810D02*
X2100Y1810D01*
X2300Y1610D01*
X1950Y1710D02*
X2080Y1710D01*
X2220Y1570D01*
X1637Y3073D02*
X1637Y3131D01*
X1637Y3073D02*
X1640Y3070D01*
X1431Y3040D02*
X1550Y3040D01*
X1549Y3131D02*
X1563Y3131D01*
X1520Y3160D02*
X1549Y3131D01*
X1520Y3160D02*
X1520Y3220D01*
X1460Y3280D02*
X1520Y3220D01*
X1230Y3280D02*
X1460Y3280D01*
X1120Y3170D02*
X1230Y3280D01*
X3060Y1560D02*
X3130Y1560D01*
X3170Y1600D01*
X3120Y1460D02*
X3240Y1580D01*
X3100Y1360D02*
X3290Y1550D01*
X3290Y2790D01*
X3190Y2890D02*
X3290Y2790D01*
X3050Y2890D02*
X3190Y2890D01*
X2650Y3310D02*
X2970Y3310D01*
X3240Y1580D02*
X3240Y2610D01*
X3170Y1600D02*
X3170Y2590D01*
X3160Y2690D02*
X3240Y2610D01*
X3050Y2420D02*
X3050Y2530D01*
X2950Y2690D02*
X3160Y2690D01*
X2860Y1890D02*
X2990Y2020D01*
X2300Y1272D02*
X2300Y1610D01*
X2220Y1260D02*
X2220Y1570D01*
X2130Y1260D02*
X2130Y1540D01*
X2060Y1240D02*
X2060Y1460D01*
X2970Y3310D02*
X3050Y3230D01*
X3050Y2890D02*
X3050Y3230D01*
X1630Y2700D02*
X1630Y2900D01*
X1431Y2943D02*
X1587Y2943D01*
X1630Y2900D01*
X1120Y2890D02*
X1120Y3170D01*
X1120Y2890D02*
X1220Y2790D01*
X1345Y2790D01*
X1570Y2640D02*
X1630Y2700D01*
X1290Y2640D02*
X1570Y2640D01*
X1170Y2581D02*
X1180Y2591D01*
X1241Y2591D01*
X1290Y2640D01*
X1080Y2350D02*
X1160Y2430D01*
X2300Y1272D02*
X2332Y1240D01*
X2220Y1260D02*
X2290Y1190D01*
X3060Y1360D02*
X3100Y1360D01*
X2130Y1260D02*
X2250Y1140D01*
X2060Y1240D02*
X2210Y1090D01*
X1150Y2500D02*
X1250Y2500D01*
X1320Y2570D01*
X1660Y2570D01*
X1720Y2510D01*
X1750Y2510D01*
X1360Y2500D02*
X1630Y2500D01*
X1720Y2410D01*
X1750Y2410D01*
X1740Y2200D02*
X1750Y2210D01*
X1580Y2200D02*
X1740Y2200D01*
X1520Y2090D02*
X1730Y2090D01*
X1480Y2130D02*
X1520Y2090D01*
X1480Y2130D02*
X1480Y2160D01*
X1480Y2200D01*
X1420Y2300D02*
X1440Y2300D01*
X1400Y2280D02*
X1420Y2300D01*
X1370Y2100D02*
X1400Y2130D01*
X1400Y2280D01*
X1250Y2100D02*
X1370Y2100D01*
X1210Y2060D02*
X1250Y2100D01*
X1210Y1360D02*
X1210Y2060D01*
X1210Y1360D02*
X1250Y1320D01*
X1550Y1100D02*
X1550Y1140D01*
X1500Y1190D02*
X1550Y1140D01*
X1030Y2380D02*
X1150Y2500D01*
X1160Y2430D02*
X1290Y2430D01*
X1360Y2500D01*
X1480Y2300D02*
X1580Y2300D01*
X3160Y1090D02*
X3160Y1300D01*
X3100Y1360D02*
X3160Y1300D01*
X2210Y1090D02*
X2930Y1090D01*
X3000Y1160D01*
X3050Y1160D01*
X2250Y1140D02*
X2880Y1140D01*
X3000Y1260D01*
X3060Y1260D01*
X2290Y1190D02*
X2840Y1190D01*
X2920Y1270D01*
X2920Y1850D01*
X2332Y1240D02*
X2800Y1240D01*
X2860Y1300D01*
X2860Y1890D01*
X1750Y1050D02*
X1750Y1100D01*
X1750Y1050D02*
X1770Y1030D01*
X3100Y1030D01*
X3160Y1090D01*
X1250Y1320D02*
X1730Y1320D01*
X1750Y1300D01*
X1750Y1100D02*
X1750Y1300D01*
X1950Y1210D02*
X1950Y1310D01*
X1650Y1100D02*
X1650Y1210D01*
X2745Y2205D02*
X2950Y2410D01*
X3140Y2620D02*
X3170Y2590D01*
X2950Y2410D02*
X2950Y2590D01*
X2980Y2620D01*
X3140Y2620D01*
X2765Y2305D02*
X2880Y2420D01*
X2880Y2620D01*
X2950Y2690D01*
X1080Y1320D02*
X1080Y2350D01*
X1080Y1320D02*
X1210Y1190D01*
X1500Y1190D01*
X1030Y1300D02*
X1030Y2380D01*
X1030Y1300D02*
X1230Y1100D01*
X1450Y1100D01*
D11*
X1170Y2591D02*
D03*
X1170Y2670D02*
D03*
D12*
X3050Y2420D02*
D03*
X3050Y2320D02*
D03*
X3050Y2220D02*
D03*
X3050Y2120D02*
D03*
X3050Y2020D02*
D03*
X2450Y1310D02*
D03*
X2450Y1410D02*
D03*
X2450Y1510D02*
D03*
X2450Y1610D02*
D03*
X2450Y1710D02*
D03*
X2450Y1810D02*
D03*
X2450Y1910D02*
D03*
X2450Y2010D02*
D03*
X1950Y1310D02*
D03*
X1950Y1410D02*
D03*
X1950Y1510D02*
D03*
X1950Y1610D02*
D03*
X1950Y1710D02*
D03*
X1950Y1810D02*
D03*
X1950Y1910D02*
D03*
X3060Y1660D02*
D03*
X3060Y1560D02*
D03*
X3060Y1460D02*
D03*
X3060Y1360D02*
D03*
X3060Y1260D02*
D03*
X1850Y1100D02*
D03*
X1750Y1100D02*
D03*
X1650Y1100D02*
D03*
X1550Y1100D02*
D03*
X1450Y1100D02*
D03*
X1480Y2200D02*
D03*
X1480Y2300D02*
D03*
X1580Y2200D02*
D03*
X1580Y2300D02*
D03*
X1295Y1405D02*
D03*
X1295Y1505D02*
D03*
X1295Y1605D02*
D03*
X1295Y1705D02*
D03*
X1295Y1805D02*
D03*
X1295Y1905D02*
D03*
X1295Y2005D02*
D03*
X1295Y2105D02*
D03*
X2650Y1410D02*
D03*
X2650Y1510D02*
D03*
X2650Y1610D02*
D03*
X2650Y1710D02*
D03*
X2650Y1810D02*
D03*
X2650Y1910D02*
D03*
X2650Y2010D02*
D03*
X2650Y2110D02*
D03*
X2650Y2210D02*
D03*
X2650Y2310D02*
D03*
X2650Y2410D02*
D03*
X2650Y2510D02*
D03*
X2650Y2610D02*
D03*
X2650Y2710D02*
D03*
X2650Y2810D02*
D03*
X2650Y2910D02*
D03*
X2650Y3010D02*
D03*
X2650Y3110D02*
D03*
X2650Y3210D02*
D03*
X2650Y3310D02*
D03*
X1750Y1410D02*
D03*
X1750Y1510D02*
D03*
X1750Y1610D02*
D03*
X1750Y1710D02*
D03*
X1750Y1810D02*
D03*
X1750Y1910D02*
D03*
X1750Y2010D02*
D03*
X1750Y2110D02*
D03*
X1750Y2210D02*
D03*
X1750Y2310D02*
D03*
X1750Y2410D02*
D03*
X1750Y2510D02*
D03*
X1750Y2610D02*
D03*
X1750Y2710D02*
D03*
X1750Y2810D02*
D03*
X1750Y2910D02*
D03*
X1750Y3010D02*
D03*
X1750Y3110D02*
D03*
X1750Y3210D02*
D03*
X3050Y2530D02*
D03*
X3050Y2890D02*
D03*
X1950Y1210D02*
D03*
X1650Y1210D02*
D03*
D13*
X3050Y1920D02*
D03*
X3060Y1160D02*
D03*
X1480Y2400D02*
D03*
X1580Y2400D02*
D03*
X1295Y2205D02*
D03*
D14*
X1950Y2010D02*
D03*
X1750Y3310D02*
D03*
D15*
X1320Y3101D02*
D03*
X1320Y2982D02*
D03*
D16*
X3264Y3264D02*
D03*
X3264Y1098D02*
D03*
X1098Y1099D02*
D03*
X1098Y3265D02*
D03*
D17*
X1637Y3131D02*
D03*
X1563Y3131D02*
D03*
X1600Y3209D02*
D03*
D18*
X1550Y3040D02*
D03*
X1630Y3040D02*
D03*
D19*
X1635Y2790D02*
D03*
X1345Y2790D02*
D03*
D20*
X1431Y3140D02*
D03*
X1431Y3042D02*
D03*
X1431Y2943D02*
D03*
X1208Y3140D02*
D03*
X1208Y3042D02*
D03*
X1208Y2943D02*
D03*
M02*
