G04 Layer_Physical_Order=1*
G04 Layer_Color=25308*
%FSLAX23Y23*%
%MOIN*%
G70*
G01*
G75*
%ADD10C,0.031*%
%ADD11O,0.120X0.060*%
%ADD12C,0.079*%
%ADD13R,0.079X0.079*%
%ADD14R,0.079X0.079*%
%ADD15C,0.035*%
%ADD16C,0.060*%
D10*
X3050Y2530D02*
X3050Y2890D01*
X1650Y1210D02*
X1950Y1210D01*
D11*
X1170Y2591D02*
D03*
X1170Y2670D02*
D03*
D12*
X3050Y2420D02*
D03*
X3050Y2320D02*
D03*
X3050Y2220D02*
D03*
X3050Y2120D02*
D03*
X3050Y2020D02*
D03*
X2450Y1310D02*
D03*
X2450Y1410D02*
D03*
X2450Y1510D02*
D03*
X2450Y1610D02*
D03*
X2450Y1710D02*
D03*
X2450Y1810D02*
D03*
X2450Y1910D02*
D03*
X2450Y2010D02*
D03*
X1950Y1310D02*
D03*
X1950Y1410D02*
D03*
X1950Y1510D02*
D03*
X1950Y1610D02*
D03*
X1950Y1710D02*
D03*
X1950Y1810D02*
D03*
X1950Y1910D02*
D03*
X3060Y1660D02*
D03*
X3060Y1560D02*
D03*
X3060Y1460D02*
D03*
X3060Y1360D02*
D03*
X3060Y1260D02*
D03*
X1850Y1100D02*
D03*
X1750Y1100D02*
D03*
X1650Y1100D02*
D03*
X1550Y1100D02*
D03*
X1450Y1100D02*
D03*
X1480Y2200D02*
D03*
X1480Y2300D02*
D03*
X1580Y2200D02*
D03*
X1580Y2300D02*
D03*
X1295Y1405D02*
D03*
X1295Y1505D02*
D03*
X1295Y1605D02*
D03*
X1295Y1705D02*
D03*
X1295Y1805D02*
D03*
X1295Y1905D02*
D03*
X1295Y2005D02*
D03*
X1295Y2105D02*
D03*
X2650Y1410D02*
D03*
X2650Y1510D02*
D03*
X2650Y1610D02*
D03*
X2650Y1710D02*
D03*
X2650Y1810D02*
D03*
X2650Y1910D02*
D03*
X2650Y2010D02*
D03*
X2650Y2110D02*
D03*
X2650Y2210D02*
D03*
X2650Y2310D02*
D03*
X2650Y2410D02*
D03*
X2650Y2510D02*
D03*
X2650Y2610D02*
D03*
X2650Y2710D02*
D03*
X2650Y2810D02*
D03*
X2650Y2910D02*
D03*
X2650Y3010D02*
D03*
X2650Y3110D02*
D03*
X2650Y3210D02*
D03*
X2650Y3310D02*
D03*
X1750Y1410D02*
D03*
X1750Y1510D02*
D03*
X1750Y1610D02*
D03*
X1750Y1710D02*
D03*
X1750Y1810D02*
D03*
X1750Y1910D02*
D03*
X1750Y2010D02*
D03*
X1750Y2110D02*
D03*
X1750Y2210D02*
D03*
X1750Y2310D02*
D03*
X1750Y2410D02*
D03*
X1750Y2510D02*
D03*
X1750Y2610D02*
D03*
X1750Y2710D02*
D03*
X1750Y2810D02*
D03*
X1750Y2910D02*
D03*
X1750Y3010D02*
D03*
X1750Y3110D02*
D03*
X1750Y3210D02*
D03*
X3050Y2530D02*
D03*
X3050Y2890D02*
D03*
X1950Y1210D02*
D03*
X1650Y1210D02*
D03*
D13*
X3050Y1920D02*
D03*
X3060Y1160D02*
D03*
X1480Y2400D02*
D03*
X1580Y2400D02*
D03*
X1295Y2205D02*
D03*
D14*
X1950Y2010D02*
D03*
X1750Y3310D02*
D03*
D15*
X1320Y3101D02*
D03*
X1320Y2982D02*
D03*
D16*
X3264Y3264D02*
D03*
X3264Y1098D02*
D03*
X1098Y1099D02*
D03*
X1098Y3265D02*
D03*
M02*
